<svg width="350.132812" height="490.096069" viewBox="0 0 350.133 490.096" fill="none" xmlns="http://www.w3.org/2000/svg" xmlns:xlink="http://www.w3.org/1999/xlink">
	<desc>
	</desc>
	<defs/>
	<path id="path" d="M18.98 1.67C17.47 2.48 15.76 3.99 15.15 5.09C14.55 6.1 14.15 14.35 14.15 24.11L14.15 41.31L17.07 44.53L19.98 47.85L169.39 48.16L318.81 48.36L319.91 53.39C321.52 60.93 324.64 66.27 331.68 73.51C338.02 80.05 342.05 87.09 342.15 91.32L342.15 93.63L222.82 93.83C112.65 94.14 103.29 94.24 102.39 95.85C101.58 97.05 101.68 97.96 102.59 99.07C103.79 100.48 115.67 100.68 223.52 100.68L343.15 100.68L342.95 276.45C342.65 449.1 342.65 452.42 340.64 457.15C336.31 467.51 327.86 475.86 317.29 480.19L311.46 482.5L175.13 482.5L38.8 482.5L32.96 480.19C22.1 475.76 13.44 467.11 9.52 456.55C7.61 451.41 7.61 447.09 7.61 270.71L7.61 90.11L9.82 85.38C10.93 82.87 15.15 77.23 19.08 73.01C26.42 65.06 27.63 62.24 24.21 60.43C22.5 59.53 21.29 60.43 14.95 67.07C6.2 76.13 3.68 80.05 1.57 88.1C0.26 93.33 0.06 114.36 0.06 270.31C0.06 385.92 0.46 448.4 1.07 451.92C4.89 471.74 21.19 486.73 41.51 489.04C52.58 490.35 297.68 490.35 308.74 489.04C328.77 486.73 344.16 473.05 348.69 453.33C350 447.69 350.2 424.15 350 268L349.69 89.11L347.28 83.17C345.67 79.15 342.75 75.02 338.12 70.09C331.18 62.85 327.86 57.41 326.65 51.68C325.95 48.76 326.15 48.36 328.46 47.75C329.87 47.45 332.19 45.74 333.6 44.13C336.11 41.21 336.11 40.81 336.11 24.11C336.11 14.25 335.71 6.1 335.1 4.99C332.29 -0.14 340.14 0.06 174.93 0.06C41.61 0.16 21.29 0.36 18.98 1.67ZM59.73 10.02C50.57 16.66 45.24 31.05 48.86 39.5C49.56 41.21 48.56 41.31 36.99 41.31C30.04 41.31 23.71 41.01 22.8 40.71C21.39 40.21 21.19 37.79 21.19 24.31C21.19 15.56 21.49 8.11 21.89 7.81C22.2 7.41 31.86 7.11 43.12 7.11L63.75 7.11L59.73 10.02Z" fill="#000000" fill-opacity="1.000000" fill-rule="nonzero"/>
	<path id="path" d="M15.15 5.09C14.55 6.1 14.15 14.35 14.15 24.11L14.15 41.31L17.07 44.53L19.98 47.85L169.39 48.16L318.81 48.36L319.91 53.39C321.52 60.93 324.64 66.27 331.68 73.51C338.02 80.05 342.05 87.09 342.15 91.32L342.15 93.63L222.82 93.83C112.65 94.14 103.29 94.24 102.39 95.85C101.58 97.05 101.68 97.96 102.59 99.07C103.79 100.48 115.67 100.68 223.52 100.68L343.15 100.68L342.95 276.45C342.65 449.1 342.65 452.42 340.64 457.15C336.31 467.51 327.86 475.86 317.29 480.19L311.46 482.5L175.13 482.5L38.8 482.5L32.96 480.19C22.1 475.76 13.44 467.11 9.52 456.55C7.61 451.41 7.61 447.09 7.61 270.71L7.61 90.11L9.82 85.38C10.93 82.87 15.15 77.23 19.08 73.01C26.42 65.06 27.63 62.24 24.21 60.43C22.5 59.53 21.29 60.43 14.95 67.07C6.2 76.13 3.68 80.05 1.57 88.1C0.26 93.33 0.06 114.36 0.06 270.31C0.06 385.92 0.46 448.4 1.07 451.92C4.89 471.74 21.19 486.73 41.51 489.04C52.58 490.35 297.68 490.35 308.74 489.04C328.77 486.73 344.16 473.05 348.69 453.33C350 447.69 350.2 424.15 350 268L349.69 89.11L347.28 83.17C345.67 79.15 342.75 75.02 338.12 70.09C331.18 62.85 327.86 57.41 326.65 51.68C325.95 48.76 326.15 48.36 328.46 47.75C329.87 47.45 332.19 45.74 333.6 44.13C336.11 41.21 336.11 40.81 336.11 24.11C336.11 14.25 335.71 6.1 335.1 4.99C332.29 -0.14 340.14 0.06 174.93 0.06C41.61 0.16 21.29 0.36 18.98 1.67C17.47 2.48 15.76 3.99 15.15 5.09ZM48.86 39.5C49.56 41.21 48.56 41.31 36.99 41.31C30.04 41.31 23.71 41.01 22.8 40.71C21.39 40.21 21.19 37.79 21.19 24.31C21.19 15.56 21.49 8.11 21.89 7.81C22.2 7.41 31.86 7.11 43.12 7.11L63.75 7.11L59.73 10.02C50.57 16.66 45.24 31.05 48.86 39.5Z" stroke="#000000" stroke-opacity="1.000000" stroke-width="0.133333"/>
	<path id="path" d="M50.47 95.04C49.56 96.15 49.46 97.05 50.37 98.66C51.48 100.68 52.18 100.68 67.67 100.48C81.26 100.17 83.97 99.87 84.88 98.56C85.48 97.66 85.58 96.15 85.28 95.24C84.68 93.83 82.46 93.63 68.18 93.63C55 93.63 51.37 93.94 50.47 95.04Z" fill="#000000" fill-opacity="1.000000" fill-rule="nonzero"/>
	<path id="path" d="M50.37 98.66C51.48 100.68 52.18 100.68 67.67 100.48C81.26 100.17 83.97 99.87 84.88 98.56C85.48 97.66 85.58 96.15 85.28 95.24C84.68 93.83 82.46 93.63 68.18 93.63C55 93.63 51.37 93.94 50.47 95.04C49.56 96.15 49.46 97.05 50.37 98.66Z" stroke="#000000" stroke-opacity="1.000000" stroke-width="0.133333"/>
</svg>
