<?xml version="1.0" standalone="no"?>
<!DOCTYPE svg PUBLIC "-//W3C//DTD SVG 20010904//EN"
 "http://www.w3.org/TR/2001/REC-SVG-20010904/DTD/svg10.dtd">
<svg version="1.0" xmlns="http://www.w3.org/2000/svg"
 width="512.000000pt" height="512.000000pt" viewBox="0 0 512.000000 512.000000"
 preserveAspectRatio="xMidYMid meet">

<g transform="translate(0.000000,512.000000) scale(0.100000,-0.100000)"
fill="#000000" stroke="none">
<path d="M1008 4974 c-15 -8 -32 -23 -38 -34 -6 -10 -10 -92 -10 -189 l0 -171
29 -32 29 -33 1485 -3 1485 -2 11 -50 c16 -75 47 -128 117 -200 63 -65 103
-135 104 -177 l0 -23 -1186 -2 c-1095 -3 -1188 -4 -1197 -20 -8 -12 -7 -21 2
-32 12 -14 130 -16 1202 -16 l1189 0 -2 -1747 c-3 -1716 -3 -1749 -23 -1796
-43 -103 -127 -186 -232 -229 l-58 -23 -1355 0 -1355 0 -58 23 c-108 44 -194
130 -233 235 -19 51 -19 94 -19 1847 l0 1795 22 47 c11 25 53 81 92 123 73 79
85 107 51 125 -17 9 -29 0 -92 -66 -87 -90 -112 -129 -133 -209 -13 -52 -15
-261 -15 -1811 0 -1149 4 -1770 10 -1805 38 -197 200 -346 402 -369 110 -13
2546 -13 2656 0 199 23 352 159 397 355 13 56 15 290 13 1842 l-3 1778 -24 59
c-16 40 -45 81 -91 130 -69 72 -102 126 -114 183 -7 29 -5 33 18 39 14 3 37
20 51 36 25 29 25 33 25 199 0 98 -4 179 -10 190 -28 51 50 49 -1592 49 -1325
-1 -1527 -3 -1550 -16z m405 -83 c-91 -66 -144 -209 -108 -293 7 -17 -3 -18
-118 -18 -69 0 -132 3 -141 6 -14 5 -16 29 -16 163 0 87 3 161 7 164 3 4 99 7
211 7 l205 0 -40 -29z"/>
<path d="M1321 4046 c-9 -11 -10 -20 -1 -36 11 -20 18 -20 172 -18 135 3 162
6 171 19 6 9 7 24 4 33 -6 14 -28 16 -170 16 -131 0 -167 -3 -176 -14z"/>
</g>
</svg>
